<?xml version="1.0"?>
<svg xmlns="http://www.w3.org/2000/svg" viewBox="0 0 64 64">
    <path d="M 31 2 C 15.01 2 2 15.009 2 31 C 2 46.991 15.01 60 31 60 C 46.99 60 60 46.991 60 31 C 60 15.009 46.99 2 31 2 z M 31 4 C 45.552 4 57.445609 15.574 57.974609 30 L 40.949219 30 C 40.892219 29.419 40.783141 28.835812 40.619141 28.257812 C 40.470141 27.725812 39.911719 27.422359 39.386719 27.568359 C 38.854719 27.718359 38.544312 28.271734 38.695312 28.802734 C 39.743313 32.512734 37.989438 36.442484 34.523438 38.146484 C 30.567438 40.091484 25.760453 38.457047 23.814453 34.498047 C 21.868453 30.540047 23.504891 25.735063 27.462891 23.789062 C 28.292891 23.380063 29.176891 23.121578 30.087891 23.017578 C 30.636891 22.954578 31.029797 22.458156 30.966797 21.910156 C 30.904797 21.361156 30.400328 20.968297 29.861328 21.029297 C 28.720328 21.159297 27.617078 21.484141 26.580078 21.994141 C 23.363078 23.576141 21.384688 26.671953 21.054688 30.001953 L 4.0253906 30.001953 C 4.5543906 15.574953 16.448 4 31 4 z M 30.589844 8.0039062 C 28.32334 8.0452246 26.063281 8.4189844 23.910156 9.1152344 C 23.385156 9.2852344 23.096625 9.8470469 23.265625 10.373047 C 23.401625 10.797047 23.793797 11.066406 24.216797 11.066406 C 24.318797 11.066406 24.422391 11.050578 24.525391 11.017578 C 27.671391 10.000578 31.065891 9.741625 34.337891 10.265625 C 34.881891 10.353625 35.396375 9.9805469 35.484375 9.4355469 C 35.572375 8.8905469 35.199297 8.3770625 34.654297 8.2890625 C 33.310672 8.0734375 31.949746 7.9791152 30.589844 8.0039062 z M 38.660156 9.3867188 C 38.271375 9.4033125 37.911125 9.6481562 37.765625 10.035156 C 37.570625 10.553156 37.833563 11.128266 38.351562 11.322266 C 39.064563 11.589266 39.771172 11.897234 40.451172 12.240234 C 40.596172 12.313234 40.749391 12.347656 40.900391 12.347656 C 41.265391 12.347656 41.618922 12.146828 41.794922 11.798828 C 42.043922 11.305828 41.844562 10.703078 41.351562 10.455078 C 40.607563 10.079078 39.832781 9.7412188 39.050781 9.4492188 C 38.921781 9.4007187 38.78975 9.3811875 38.660156 9.3867188 z M 34.285156 21.599609 C 33.895672 21.608797 33.529203 21.846922 33.376953 22.232422 C 33.173953 22.746422 33.425453 23.326297 33.939453 23.529297 C 34.915453 23.915297 35.790016 24.477219 36.541016 25.199219 C 36.735016 25.386219 36.984375 25.478516 37.234375 25.478516 C 37.497375 25.478516 37.758078 25.375875 37.955078 25.171875 C 38.338078 24.773875 38.325734 24.140813 37.927734 23.757812 C 36.986734 22.854812 35.894781 22.151922 34.675781 21.669922 C 34.547781 21.619422 34.414984 21.596547 34.285156 21.599609 z M 31 26 C 28.243 26 26 28.243 26 31 C 26 33.757 28.243 36 31 36 C 33.757 36 36 33.757 36 31 C 36 28.243 33.757 26 31 26 z M 31 28 C 32.654 28 34 29.346 34 31 C 34 32.654 32.654 34 31 34 C 29.346 34 28 32.654 28 31 C 28 29.346 29.346 28 31 28 z M 4.0253906 32 L 21.056641 32 C 21.174641 33.145 21.480578 34.289859 22.017578 35.380859 C 23.754578 38.913859 27.312813 40.966797 31.007812 40.966797 C 32.486812 40.966797 33.989297 40.636406 35.404297 39.941406 C 38.571297 38.384406 40.586594 35.338 40.933594 32 L 57.972656 32 C 57.445656 46.426 45.552 58 31 58 C 16.448 58 4.5543906 46.426 4.0253906 32 z M 15.398438 41.998047 C 15.145562 41.958297 14.875844 42.016688 14.652344 42.179688 L 13.037109 43.357422 C 12.591109 43.682422 12.492359 44.307906 12.818359 44.753906 C 13.013359 45.022906 13.317953 45.164062 13.626953 45.164062 C 13.830953 45.164062 14.036844 45.102656 14.214844 44.972656 L 15.830078 43.794922 C 16.276078 43.469922 16.376781 42.844437 16.050781 42.398438 C 15.888781 42.175438 15.651313 42.037797 15.398438 41.998047 z M 18.644531 45.679688 C 18.389781 45.706813 18.146609 45.831875 17.974609 46.046875 L 16.71875 47.601562 C 16.37175 48.031562 16.438187 48.660812 16.867188 49.007812 C 17.052187 49.156813 17.274141 49.230469 17.494141 49.230469 C 17.786141 49.230469 18.076437 49.102422 18.273438 48.857422 L 19.529297 47.302734 C 19.876297 46.872734 19.809859 46.243484 19.380859 45.896484 C 19.165859 45.722984 18.899281 45.652562 18.644531 45.679688 z M 23.113281 48.326172 C 22.723281 48.319562 22.350844 48.543875 22.183594 48.921875 L 21.371094 50.751953 C 21.147094 51.256953 21.375859 51.847312 21.880859 52.070312 C 22.012859 52.129312 22.151156 52.15625 22.285156 52.15625 C 22.669156 52.15625 23.034219 51.933547 23.199219 51.560547 L 24.011719 49.732422 C 24.234719 49.227422 24.006953 48.635109 23.501953 48.412109 C 23.375203 48.355859 23.243281 48.328375 23.113281 48.326172 z M 28.136719 49.777344 C 27.587719 49.690344 27.078188 50.063375 26.992188 50.609375 L 26.681641 52.585938 C 26.596641 53.130938 26.967672 53.643516 27.513672 53.728516 C 27.566672 53.736516 27.617922 53.740234 27.669922 53.740234 C 28.153922 53.740234 28.57825 53.389484 28.65625 52.896484 L 28.96875 50.919922 C 29.05475 50.374922 28.682719 49.862344 28.136719 49.777344 z M 32.962891 49.896484 C 32.413891 49.954484 32.016219 50.447094 32.074219 50.996094 L 32.287109 52.984375 C 32.342109 53.497375 32.774297 53.878906 33.279297 53.878906 C 33.314297 53.878906 33.350719 53.875094 33.386719 53.871094 C 33.935719 53.813094 34.333391 53.320484 34.275391 52.771484 L 34.0625 50.783203 C 34.0055 50.234203 33.520891 49.842484 32.962891 49.896484 z"/>
</svg>
